<?xml version="1.0" encoding="iso-8859-1"?>
<!-- Generator: Adobe Illustrator 19.0.0, SVG Export Plug-In . SVG Version: 6.00 Build 0)  -->
<svg version="1.1" id="Layer_1" xmlns="http://www.w3.org/2000/svg" xmlns:xlink="http://www.w3.org/1999/xlink" x="0px" y="0px"
	 viewBox="0 0 511.997 511.997" style="enable-background:new 0 0 511.997 511.997;" xml:space="preserve">
<g>
	<g>
		<g>
			<path d="M351.998,193.917v-23.253c0-11.776-9.536-21.333-21.333-21.333h-256c-11.797,0-21.333,9.557-21.333,21.333v277.333
				c0,44.203,75.008,64,149.333,64s149.333-19.797,149.333-64v-1.92c60.437-10.219,106.667-62.784,106.667-126.08
				S412.436,204.135,351.998,193.917z M202.665,405.33c-47.061,0-85.333-38.272-85.333-85.333s38.272-85.333,85.333-85.333
				c47.061,0,85.333,38.272,85.333,85.333S249.726,405.33,202.665,405.33z M351.998,402.301V237.693
				c36.715,9.536,64,42.667,64,82.304C415.998,359.634,388.713,392.765,351.998,402.301z"/>
			<path d="M202.665,277.33c-23.531,0-42.667,19.136-42.667,42.667c0,23.531,19.136,42.667,42.667,42.667
				c23.531,0,42.667-19.136,42.667-42.667C245.332,296.466,226.196,277.33,202.665,277.33z"/>
			<path d="M145.507,90.949c-6.485,5.952-8.64,15.275-5.44,23.445c3.179,8.213,11.072,13.611,19.861,13.611h0.064
				c6.037,0,11.456-2.517,15.339-6.528c17.92-16.789,27.221-35.328,27.648-55.125c0.448-20.587-9.237-41.365-27.968-60.096
				c-8.32-8.341-21.824-8.341-30.165,0c-8.32,8.32-8.32,21.824,0,30.165c7.189,7.189,15.723,18.048,15.467,29.013
				C160.141,73.499,155.171,82.075,145.507,90.949z"/>
			<path d="M252.568,90.949c-6.485,5.952-8.64,15.275-5.44,23.445c3.179,8.213,11.072,13.611,19.861,13.611h0.064
				c6.037,0,11.456-2.517,15.339-6.528c17.92-16.789,27.221-35.328,27.648-55.125c0.448-20.587-9.237-41.365-27.968-60.096
				c-8.32-8.341-21.824-8.341-30.165,0c-8.32,8.32-8.32,21.824,0,30.165c7.189,7.189,15.723,18.048,15.467,29.013
				C267.203,73.499,262.232,82.075,252.568,90.949z"/>
		</g>
	</g>
</g>
<g>
</g>
<g>
</g>
<g>
</g>
<g>
</g>
<g>
</g>
<g>
</g>
<g>
</g>
<g>
</g>
<g>
</g>
<g>
</g>
<g>
</g>
<g>
</g>
<g>
</g>
<g>
</g>
<g>
</g>
</svg>
